<svg id="Layer_1" data-name="Layer 1" xmlns="http://www.w3.org/2000/svg" viewBox="0 0 1007.07 868.24"><defs><style>.cls-1{fill:#172d92;}</style></defs><path class="cls-1" d="M32.4,690h5.4v-5.4h64.8V690H108v54h-5.4v5.4H37.8V744H32.4Zm-27-37.8v5.4H0v205.2H5.4v5.4h54v-5.4H64.8v-75.6h5.4v-5.4H135v5.4h5.4v75.6h5.4v5.4h21.6v-5.4h5.4v-108h-5.4v-5.4H145.8V744h-5.4v-86.4H135v-5.4Z"/><polygon class="cls-1" points="696.6 4.24 696.6 9.64 691.2 9.64 691.2 117.64 696.6 117.64 696.6 123.05 793.8 123.05 793.8 128.44 799.2 128.44 799.2 182.45 793.8 182.45 793.8 187.84 729 187.84 729 182.45 723.6 182.45 723.6 160.85 718.2 160.85 718.2 155.44 696.6 155.44 696.6 160.85 691.2 160.85 691.2 214.84 696.6 214.84 696.6 220.24 858.6 220.24 858.6 214.84 864 214.84 864 96.04 858.6 96.04 858.6 90.64 729 90.64 729 85.25 723.6 85.25 723.6 42.05 729 42.05 729 36.64 826.2 36.64 826.2 42.05 831.6 42.05 831.6 63.64 837 63.64 837 69.04 858.6 69.04 858.6 63.64 864 63.64 864 9.64 858.6 9.64 858.6 4.24 696.6 4.24"/><polygon class="cls-1" points="5.41 4.24 5.41 9.64 0 9.64 0 36.64 0 90.64 0 105.05 0 214.84 5.41 214.84 5.41 220.24 59.41 220.24 59.41 214.84 64.8 214.84 64.8 96.04 59.41 96.04 59.41 90.64 37.8 90.64 37.8 85.25 32.4 85.25 32.4 42.05 37.8 42.05 37.8 36.64 135 36.64 135 42.05 140.4 42.05 140.4 214.84 145.81 214.84 145.81 220.24 167.4 220.24 167.4 214.84 172.8 214.84 172.8 36.64 172.8 9.64 167.4 9.64 167.4 4.24 5.41 4.24"/><polygon class="cls-1" points="696.6 652.24 696.6 657.64 691.2 657.64 691.2 738.64 691.2 753.04 691.2 835.85 691.2 862.84 696.6 862.84 696.6 868.24 756 868.24 858.6 868.24 858.6 862.84 864 862.84 864 841.24 858.6 841.24 858.6 835.85 761.4 835.85 761.4 830.44 756 830.44 756 744.04 750.6 744.04 750.6 738.64 729 738.64 729 733.25 723.6 733.25 723.6 657.64 718.2 657.64 718.2 652.24 696.6 652.24"/><path class="cls-1" d="M1007.07,349.51,649.84,503.32C611.39,519.87,551,539,525.39,498.65c-14.21-22.4-5.53-57.44,15-89.56,13.1-20.5,29.94-39.33,46.88-58.12-9.48,15.31-35.55,66.72-.56,91.9,13.62,9.8,37.47,10.66,67,2.63Z"/></svg>